<mxfile host="app.diagrams.net" modified="2023-09-13T14:19:25.168Z" agent="Mozilla/5.0 (Macintosh; Intel Mac OS X 10_15_7) AppleWebKit/537.36 (KHTML, like Gecko) Chrome/98.0.4758.102 Safari/537.36" version="21.7.4" etag="T1BjjuibO0PzsDsCltIv" type="github">
  <diagram name="第 1 页" id="X3lkv7haLpVf6BRphFSV">
    <mxGraphModel>
      <root>
        <mxCell id="0" />
        <mxCell id="1" parent="0" />
      </root>
    </mxGraphModel>
  </diagram>
</mxfile>
